#!OML:ASF H:\Terrain\Patient Classification 1\Walking\steve\steve.ASF
:FULLY-SPECIFIED
:DEGREES
93
root 8.8614 15.7292 -16.5142 5.45509 0.07137 -0.0832657
lowerback 1.41985 0.995577 1.02724
upperback -2.48775 1.43612 2.46031
thorax -3.3927 0.724709 1.89397
lowerneck -12.1509 -1.00891 -4.63965
upperneck 9.28945 -0.409059 -1.25402
head 4.7873 -0.450272 0.328649
rclavicle -2.93207e-015 2.3059e-014
rhumerus -73.3136 -33.9596 -36.5147
rradius 15.3386
rwrist 28.51
rhand -13.5334 -38.5896
rfingers 7.12502
rthumb 12.579 -68.1909
lclavicle -2.93207e-015 2.3059e-014
lhumerus -14.3231 -5.50961 86.2614
lradius 51.4402
lwrist 32.5023
lhand -26.6256 -16.9819
lfingers 7.12502
lthumb -0.0584981 12.9978
rfemur -34.7763 -0.4483 27.0503
rtibia 39.7915
rfoot -9.7332 6.83985
rtoes 6.91596
lfemur -4.19634 2.55727 -19.46
ltibia 58.5996
lfoot 14.9542 7.97567
ltoes -1.19303
94
root 8.85909 15.7713 -16.2939 5.38285 -0.0964915 -0.27202
lowerback 1.48957 1.18704 1.27033
upperback -2.48292 1.70199 2.4842
thorax -3.42802 0.851215 1.76927
lowerneck -12.2094 -1.01843 -4.72008
upperneck 9.54607 -0.403321 -1.21018
head 4.8771 -0.45299 0.355075
rclavicle -3.38307e-014 -2.3059e-014
rhumerus -69.8591 -33.4519 -41.2837
rradius 15.6088
rwrist 25.7844
rhand -13.3252 -38.8133
rfingers 7.12502
rthumb 12.7797 -68.4022
lclavicle -3.38307e-014 -2.3059e-014
lhumerus -15.7332 -5.69648 86.9892
lradius 50.5721
lwrist 31.963
lhand -26.4537 -16.8978
lfingers 7.12502
lthumb 0.107539 13.0819
rfemur -33.5739 -0.478224 27.297
rtibia 39.5
rfoot -10.37 7.21851
rtoes 6.63179
lfemur -6.14646 2.9844 -19.1737
ltibia 60.9216
lfoot 13.3432 5.9436
ltoes -2.97811
95
root 8.85898 15.8247 -16.0774 5.4491 -0.312593 -0.630723
lowerback 1.5259 1.39093 1.65686
upperback -2.68758 1.99767 2.57815
thorax -3.65813 0.98914 1.63363
lowerneck -11.3852 -1.11871 -4.96366
upperneck 9.49398 -0.562224 -1.09674
head 4.72888 -0.528094 0.421043
rclavicle -1.45361e-014 -2.46493e-014
rhumerus -68.6444 -34.5447 -41.7017
rradius 15.3383
rwrist 27.5927
rhand -13.6432 -38.3912
rfingers 7.12502
rthumb 12.4731 -67.999
lclavicle -1.45361e-014 -2.46493e-014
lhumerus -17.3925 -5.84758 87.7241
lradius 49.5389
lwrist 31.5075
lhand -26.674 -16.8864
lfingers 7.12502
lthumb -0.105204 13.0934
rfemur -32.4916 -0.524518 27.7281
rtibia 39.136
rfoot -11.0332 7.4791
rtoes 4.70585
lfemur -8.27068 3.44566 -18.7156
ltibia 62.9021
lfoot 12.2973 4.19812
ltoes -6.4718
96
root 8.85751 15.8784 -15.8583 5.67889 -0.666509 -0.651139
lowerback 1.27992 1.58467 1.64992
upperback -2.86381 2.25263 2.54148
thorax -3.70499 1.11591 1.59257
lowerneck -10.8434 -1.16979 -5.02033
upperneck 9.53613 -0.673068 -0.940256
head 4.65491 -0.573567 0.473058
rclavicle 1.20839e-014 -1.11319e-014
rhumerus -68.7502 -37.1115 -39.2033
rradius 14.4481
rwrist 32.4043
rhand -14.4708 -37.4416
rfingers 7.12502
rthumb 11.6751 -67.0963
lclavicle 1.20839e-014 -1.11319e-014
lhumerus -18.8134 -6.17474 88.1474
lradius 48.2419
lwrist 31.4018
lhand -26.8573 -16.8497
lfingers 7.12502
lthumb -0.28222 13.1299
rfemur -31.5774 -0.249536 27.7057
rtibia 38.7214
rfoot -11.6715 7.61068
rtoes 3.71317
lfemur -10.4041 3.97821 -18.6734
ltibia 64.4865
lfoot 11.2485 2.75418
ltoes -8.28109
97
root 8.85379 15.9274 -15.6393 5.83632 -1.04507 -0.620196
lowerback 0.998953 1.74164 1.61139
upperback -2.89746 2.44969 2.44998
thorax -3.58164 1.21443 1.51928
lowerneck -10.8476 -1.19574 -5.05605
upperneck 9.83453 -0.720415 -0.730683
head 4.74946 -0.590881 0.539965
rclavicle -1.91905e-014 8.74653e-015
rhumerus -66.0042 -37.6065 -41.7491
rradius 14.2922
rwrist 32.2378
rhand -14.8457 -37.7392
rfingers 7.12502
rthumb 11.3136 -67.4141
lclavicle -1.91905e-014 8.74653e-015
lhumerus -20.0452 -6.34266 88.4677
lradius 46.742
lwrist 31.2731
lhand -26.6027 -16.7456
lfingers 7.12502
lthumb -0.0363803 13.2341
rfemur -30.659 -0.0652621 27.6527
rtibia 38.2387
rfoot -12.059 7.78679
rtoes 3.54578
lfemur -12.3417 4.44197 -18.7339
ltibia 65.7176
lfoot 10.0778 2.1984
ltoes -6.99122
98
root 8.85112 15.9716 -15.4242 5.83227 -1.39801 -0.666408
lowerback 0.958295 1.87208 1.69493
upperback -2.8952 2.62219 2.3727
thorax -3.55166 1.2969 1.38738
lowerneck -10.8018 -1.185 -5.06968
upperneck 10.0164 -0.717646 -0.608738
head 4.79842 -0.585663 0.580239
rclavicle -4.739e-015 -2.70347e-014
rhumerus -61.5491 -36.4693 -47.4438
rradius 14.7385
rwrist 29.0618
rhand -15.2567 -39.1388
rfingers 7.12502
rthumb 10.9171 -68.835
lclavicle -4.739e-015 -2.70347e-014
lhumerus -21.2351 -6.57255 88.8439
lradius 45.1107
lwrist 31.2823
lhand -26.3597 -16.3669
lfingers 7.12502
lthumb 0.198309 13.6127
rfemur -29.6067 -0.0107773 27.7011
rtibia 37.7616
rfoot -12.321 8.13969
rtoes 4.09863
lfemur -14.0351 4.8658 -18.7891
ltibia 66.6597
lfoot 8.61536 2.47278
ltoes -7.45765
99
root 8.85089 16.0126 -15.2107 5.77871 -1.65885 -0.889415
lowerback 0.980183 1.96606 1.93609
upperback -2.90802 2.75637 2.40318
thorax -3.56972 1.35719 1.2779
lowerneck -10.6833 -1.07072 -4.90919
upperneck 10.0628 -0.566818 -0.845117
head 4.78885 -0.521263 0.492458
rclavicle -1.51581e-014 -1.19271e-014
rhumerus -57.8772 -35.718 -51.6758
rradius 15.0797
rwrist 27.2279
rhand -16.131 -39.8785
rfingers 7.12502
rthumb 10.0738 -69.6174
lclavicle -1.51581e-014 -1.19271e-014
lhumerus -22.644 -7.34657 89.3147
lradius 43.7278
lwrist 31.7994
lhand -26.3148 -16.0031
lfingers 7.12502
lthumb 0.241737 13.9765
rfemur -28.3834 0.0623634 27.9171
rtibia 37.2852
rfoot -12.8279 8.57569
rtoes 4.52513
lfemur -15.6796 5.20271 -18.6399
ltibia 67.393
lfoot 6.11005 2.72698
ltoes -11.0685
100
root 8.85349 16.0422 -14.9948 5.73164 -1.87198 -0.846957
lowerback 0.827631 2.06516 1.85916
upperback -2.86363 2.87985 2.41485
thorax -3.44307 1.422 1.33447
lowerneck -10.7838 -1.02586 -4.70204
upperneck 10.3695 -0.480771 -1.21393
head 4.89814 -0.501425 0.350019
rclavicle -2.63452e-014 -7.95139e-015
rhumerus -54.0859 -34.4866 -55.9582
rradius 15.4664
rwrist 24.6264
rhand -16.556 -40.1466
rfingers 7.12502
rthumb 9.66375 -69.9049
lclavicle -2.63452e-014 -7.95139e-015
lhumerus -24.3172 -8.18039 89.931
lradius 42.5726
lwrist 32.1927
lhand -26.4997 -15.8735
lfingers 7.12502
lthumb 0.0631161 14.1062
rfemur -27.1633 0.0552097 27.8484
rtibia 36.7771
rfoot -13.2825 8.95433
rtoes 4.2767
lfemur -17.3558 5.46188 -18.7546
ltibia 68.0076
lfoot 2.14894 1.90228
ltoes -17.9559
101
root 8.85992 16.0656 -14.7726 5.6658 -2.24457 -0.624562
lowerback 0.599967 2.18039 1.64994
upperback -2.76976 3.01467 2.32025
thorax -3.22408 1.49479 1.35974
lowerneck -10.8003 -1.06324 -4.72065
upperneck 10.6908 -0.533903 -1.09963
head 5.0018 -0.527217 0.384137
rclavicle -1.27564e-014 -3.18055e-014
rhumerus -50.1413 -32.2952 -60.7857
rradius 16.0949
rwrist 20.4568
rhand -17.7868 -40.7183
rfingers 7.12502
rthumb 8.4761 -70.5282
lclavicle -1.27564e-014 -3.18055e-014
lhumerus -25.7973 -7.51264 90.282
lradius 40.9578
lwrist 31.3089
lhand -26.344 -15.7939
lfingers 7.12502
lthumb 0.213506 14.1858
rfemur -25.9525 0.0986852 27.5508
rtibia 36.2508
rfoot -13.6249 9.33327
rtoes 3.74506
lfemur -18.8614 5.92009 -19.1479
ltibia 68.4447
lfoot 2.59593 1.88306
ltoes -11.1549
102
root 8.86687 16.0936 -14.551 5.70078 -2.5794 -0.961336
lowerback 0.3226 2.26582 2.10174
upperback -2.74432 3.12742 2.34803
thorax -3.02088 1.54093 1.14541
lowerneck -10.7336 -0.975265 -4.80371
upperneck 10.8785 -0.432217 -0.861297
head 5.04751 -0.468379 0.479483
rclavicle 6.4984e-014 3.65764e-014
rhumerus -46.8363 -30.2377 -64.7461
rradius 16.8942
rwrist 17.1694
rhand -19.9865 -40.5478
rfingers 7.12502
rthumb 6.35288 -70.4325
lclavicle 6.4984e-014 3.65764e-014
lhumerus -26.9824 -5.97016 90.3682
lradius 38.7623
lwrist 29.7659
lhand -25.5158 -15.8684
lfingers 7.12502
lthumb 1.01342 14.109
rfemur -24.7894 0.081235 27.8715
rtibia 35.7488
rfoot -14.0957 9.73779
rtoes 2.24533
lfemur -20.4757 6.35755 -18.9447
ltibia 68.7253
lfoot 1.26467 2.10985
ltoes -8.39625
103
root 8.86727 16.1185 -14.3351 5.7704 -2.74337 -1.46569
lowerback 0.10041 2.37452 2.67956
upperback -2.77641 3.27726 2.47349
thorax -2.90622 1.60376 0.95821
lowerneck -10.9669 -0.889953 -4.89144
upperneck 11.3342 -0.285144 -0.812213
head 5.22618 -0.406521 0.519182
rclavicle 1.94995e-014 -7.95139e-016
rhumerus -43.8685 -28.3151 -68.0088
rradius 17.7539
rwrist 14.6307
rhand -21.2462 -39.2373
rfingers 7.12502
rthumb 5.13664 -69.155
lclavicle 1.94995e-014 -7.95139e-016
lhumerus -28.19 -5.14547 90.735
lradius 36.4107
lwrist 28.443
lhand -25.2101 -16.246
lfingers 7.12502
lthumb 1.30869 13.7297
rfemur -23.7 -0.103704 28.434
rtibia 35.3123
rfoot -14.5496 9.98636
rtoes 0.440855
lfemur -22.2012 6.69325 -18.4833
ltibia 68.8656
lfoot -1.00608 2.277
ltoes -9.63442
104
root 8.86829 16.1372 -14.1215 5.73772 -2.92214 -1.59825
lowerback 0.00596621 2.50915 2.91922
upperback -2.75843 3.45487 2.45984
thorax -2.81983 1.68717 0.811936
lowerneck -11.1375 -0.916091 -4.85028
upperneck 11.6836 -0.291273 -0.94285
head 5.36431 -0.424421 0.470531
rclavicle -1.64494e-014 8.74653e-015
rhumerus -41.0319 -25.9915 -71.171
rradius 18.8545
rwrist 11.5708
rhand -21.4126 -37.7699
rfingers 7.12502
rthumb 4.97594 -67.6915
lclavicle -1.64494e-014 8.74653e-015
lhumerus -29.467 -4.29443 91.0729
lradius 34.1678
lwrist 26.8418
lhand -25.244 -16.3723
lfingers 7.12502
lthumb 1.27587 13.6036
rfemur -22.6027 -0.234871 28.5643
rtibia 34.9639
rfoot -15.0237 10.2402
rtoes 0.894909
lfemur -23.733 6.99825 -18.501
ltibia 68.7466
lfoot -3.01629 2.48392
ltoes -11.7126
